<?xml version="1.0" encoding="UTF-8" standalone="no"?>
<!-- Created with Inkscape (http://www.inkscape.org/) -->
<svg xmlns:dc="http://purl.org/dc/elements/1.1/" xmlns:cc="http://creativecommons.org/ns#" xmlns:rdf="http://www.w3.org/1999/02/22-rdf-syntax-ns#" xmlns:svg="http://www.w3.org/2000/svg" xmlns="http://www.w3.org/2000/svg" xmlns:sodipodi="http://sodipodi.sourceforge.net/DTD/sodipodi-0.dtd" xmlns:inkscape="http://www.inkscape.org/namespaces/inkscape" width="11" height="9" viewBox="0 0 2.9104166 2.3812501" version="1.1" id="svg8" inkscape:version="0.92.3 (2405546, 2018-03-11)" sodipodi:docname="arrow.svg">
  <defs id="defs2"/>
  <sodipodi:namedview id="base" pagecolor="#ffffff" bordercolor="#666666" borderopacity="1.0" inkscape:pageopacity="0.0" inkscape:pageshadow="2" inkscape:zoom="74.714286" inkscape:cx="5.4958794" inkscape:cy="3.5023207" inkscape:document-units="px" inkscape:current-layer="flowRoot10" showgrid="false" units="px" inkscape:window-width="1366" inkscape:window-height="707" inkscape:window-x="0" inkscape:window-y="0" inkscape:window-maximized="1"/>
  <metadata id="metadata5">
    <rdf:RDF>
      <cc:Work rdf:about="">
        <dc:format>image/svg+xml</dc:format>
        <dc:type rdf:resource="http://purl.org/dc/dcmitype/StillImage"/>
        <dc:title/>
      </cc:Work>
    </rdf:RDF>
  </metadata>
  <g inkscape:label="Capa 1" inkscape:groupmode="layer" id="layer1" transform="translate(0,-294.61875)">
    <g aria-label="↪" transform="matrix(0.29819705,0,0,0.29819705,-19.825056,231.56627)" style="font-style:normal;font-weight:normal;font-size:40px;line-height:1.25;font-family:sans-serif;letter-spacing:0px;word-spacing:0px;fill:#000000;fill-opacity:1;stroke:none" id="flowRoot10">
      <path d="m 68.429688,212.55246 q -0.175782,0 -0.319011,0.0651 -0.15625,0.0651 -0.279948,0.18229 -0.117187,0.11068 -0.182291,0.27995 -0.06511,0.14974 -0.06511,0.32552 0,0.16927 0.06511,0.31901 0.07813,0.18229 0.182291,0.27995 0.123698,0.11719 0.279948,0.18229 0.143229,0.0651 0.319011,0.0651 h 5.983073 l -1.516927,-1.51692 0.78125,-0.78125 2.558594,2.55859 v 0.58594 l -2.558594,2.55859 -0.78125,-0.78125 1.516927,-1.51692 h -5.983073 q -0.423177,0 -0.742188,-0.14323 -0.377604,-0.16927 -0.63151,-0.42969 -0.292969,-0.29948 -0.429688,-0.63802 -0.143229,-0.35156 -0.143229,-0.74219 0,-0.39713 0.143229,-0.7487 0.14974,-0.37109 0.429688,-0.63802 0.305989,-0.29297 0.63151,-0.42969 0.338542,-0.14322 0.742188,-0.14322 z" style="font-style:normal;font-variant:normal;font-weight:normal;font-stretch:normal;font-size:13.33333397px;font-family:Roboto;-inkscape-font-specification:Roboto" id="path61" inkscape:connector-curvature="0"/>
    </g>
  </g>
</svg>