<?xml version="1.0" encoding="UTF-8" standalone="no"?>
<svg
   xmlns:dc="http://purl.org/dc/elements/1.1/"
   xmlns:cc="http://creativecommons.org/ns#"
   xmlns:rdf="http://www.w3.org/1999/02/22-rdf-syntax-ns#"
   xmlns:svg="http://www.w3.org/2000/svg"
   xmlns="http://www.w3.org/2000/svg"
   xmlns:xlink="http://www.w3.org/1999/xlink"
   id="svg97"
   version="1.1"
   viewBox="0 0 11.524181 11.11261"
   height="11.11261mm"
   width="11.524181mm">
  <defs
     id="defs91">
    <linearGradient
       x1="56"
       y1="16"
       gradientTransform="matrix(0.23357681,0,0,0.23803239,41.17894,115.12755)"
       x2="56"
       gradientUnits="userSpaceOnUse"
       xlink:href="#e"
       y2="80"
       id="m" />
    <linearGradient
       id="e">
      <stop
         id="stop12"
         offset="0" />
      <stop
         id="stop14"
         offset="1"
         stop-color="#313131" />
    </linearGradient>
  </defs>
  <metadata
     id="metadata94">
    <rdf:RDF>
      <cc:Work
         rdf:about="">
        <dc:format>image/svg+xml</dc:format>
        <dc:type
           rdf:resource="http://purl.org/dc/dcmitype/StillImage" />
        <dc:title></dc:title>
      </cc:Work>
    </rdf:RDF>
  </metadata>
  <g
     transform="translate(-46.628339,-118.94734)"
     id="layer1">
    <path
       id="path60"
       d="m 52.390659,118.94734 c -1.630257,0 -2.950633,1.24902 -2.950633,2.78607 0.004,0.17614 0.0051,0.37285 0.02324,0.59192 -0.257998,0.13893 -0.2921,0.6835 -0.06196,1.23121 0.08874,0.21121 0.210716,0.3819 0.333031,0.52091 0.0041,0.005 0.01138,0.0113 0.01549,0.0158 0.02919,0.14471 0.04989,0.25506 0.08519,0.4183 0.109376,0.33145 0.562345,0.9557 0.960331,1.49167 0.03969,0.41347 0.04113,0.82405 -0.03872,1.29434 -1.145566,0.96007 -4.078023,1.38959 -4.073789,2.3835 l -0.0545,0.37889 H 58.15252 l -0.05424,-0.37889 c -0.0048,-0.85063 -2.94984,-1.38959 -4.081463,-2.38336 -0.04582,-0.38074 -0.0543,-0.75362 -0.03098,-1.12861 0.361844,-0.56385 0.839258,-1.29045 0.960332,-1.6574 0.0445,-0.19003 0.06612,-0.31827 0.100679,-0.48144 0.106855,-0.13193 0.207674,-0.2858 0.286544,-0.47355 0.218543,-0.52015 0.191759,-1.02288 -0.03098,-1.19176 0.01557,-0.22601 0.03222,-0.43823 0.03872,-0.63141 0,-1.53696 -1.320271,-2.78606 -2.950633,-2.78606 z"
       style="fill:url(#m);stroke-width:0.26458332" />
  </g>
</svg>
