<?xml version="1.0" encoding="UTF-8" standalone="no"?>
<!-- Created with Inkscape (http://www.inkscape.org/) -->

<svg
   xmlns:dc="http://purl.org/dc/elements/1.1/"
   xmlns:cc="http://creativecommons.org/ns#"
   xmlns:rdf="http://www.w3.org/1999/02/22-rdf-syntax-ns#"
   xmlns:svg="http://www.w3.org/2000/svg"
   xmlns="http://www.w3.org/2000/svg"
   xmlns:sodipodi="http://sodipodi.sourceforge.net/DTD/sodipodi-0.dtd"
   xmlns:inkscape="http://www.inkscape.org/namespaces/inkscape"
   width="512"
   height="512"
   viewBox="0 0 135.46666 135.46667"
   version="1.1"
   id="svg861"
   inkscape:version="0.92.5 (2060ec1f9f, 2020-04-08)"
   sodipodi:docname="RMSCatalog-logo-vectorized-text.svg">
  <defs
     id="defs855" />
  <sodipodi:namedview
     id="base"
     pagecolor="#ffffff"
     bordercolor="#666666"
     borderopacity="1.0"
     inkscape:pageopacity="0.0"
     inkscape:pageshadow="2"
     inkscape:zoom="0.75332031"
     inkscape:cx="163.049"
     inkscape:cy="188.31216"
     inkscape:document-units="px"
     inkscape:current-layer="text849"
     showgrid="false"
     units="px"
     inkscape:window-width="1366"
     inkscape:window-height="712"
     inkscape:window-x="0"
     inkscape:window-y="0"
     inkscape:window-maximized="1" />
  <metadata
     id="metadata858">
    <rdf:RDF>
      <cc:Work
         rdf:about="">
        <dc:format>image/svg+xml</dc:format>
        <dc:type
           rdf:resource="http://purl.org/dc/dcmitype/StillImage" />
        <dc:title></dc:title>
      </cc:Work>
    </rdf:RDF>
  </metadata>
  <g
     inkscape:label="Capa 1"
     inkscape:groupmode="layer"
     id="layer1"
     transform="translate(0,-161.53332)">
    <path
       style="fill:#004a3a;fill-opacity:1;stroke-width:0.31124496"
       d="m 37.412802,240.56252 c -4.260656,-0.52317 -10.350466,-2.73447 -14.645319,-5.31794 -3.061322,-1.84147 -21.5498684,-16.3906 -22.17636064,-17.45116 -0.77033385,-1.30408 -0.79044724,-3.29166 -0.044584,-4.40584 0.32174002,-0.48062 1.15884514,-1.18092 1.86022914,-1.55623 1.2386905,-0.66281 1.5698861,-0.68237 11.5528775,-0.68237 h 10.277626 l 2.172171,1.05844 c 1.943286,0.94691 3.216904,2.09477 12.087055,10.89357 5.453185,5.40933 11.317074,11.35442 13.03086,13.21133 4.196338,4.54678 4.372792,4.38902 -4.981977,4.45418 -3.888607,0.0271 -7.998269,-0.0647 -9.132583,-0.20398 z m 44.8621,0.036 c -0.688205,-0.12197 -1.123999,-0.39206 -1.190063,-0.73752 -0.111989,-0.58539 10.066185,-11.29546 19.922341,-20.96351 4.72882,-4.63856 5.74303,-5.47988 7.8793,-6.53614 l 2.45186,-1.21231 9.62451,-0.0907 c 10.94596,-0.10315 11.86646,0.034 13.61791,2.02878 0.88442,1.0073 0.96827,1.27291 0.83608,2.64857 -0.0808,0.84095 -0.42339,1.90373 -0.7613,2.36173 -0.33794,0.45801 -5.14291,4.36008 -10.67775,8.67126 -7.87814,6.13641 -10.78265,8.21224 -13.37586,9.5596 -4.23679,2.20132 -9.04861,3.81038 -12.617215,4.21918 -2.965894,0.33975 -13.880951,0.37523 -15.709813,0.0511 z"
       id="path836"
       inkscape:connector-curvature="0"
       sodipodi:nodetypes="cscscscsssccccccscscccscscc" />
    <path
       style="fill:#d4ff2a;fill-opacity:1;stroke-width:0.31124496"
       d="M 66.966898,239.86132 C 66.406257,238.96146 66.312372,238.74664 62.44364,229.51243 57.647498,218.06459 49.783622,200.75388 46.974362,195.46 c -0.872526,-1.64423 -3.291851,-4.06179 -4.859941,-4.8564 -2.348834,-1.19025 -4.519127,-1.39739 -14.640977,-1.39739 h -9.553085 l -1.808513,-3.03059 c -1.414067,-2.3696 -1.837164,-3.37603 -1.939855,-4.61436 -0.22383,-2.69908 1.305366,-4.84697 4.466541,-6.27363 1.110167,-0.50103 2.611218,-0.56343 15.616289,-0.64919 9.117002,-0.0601 15.03421,0.0246 16.151804,0.23116 3.39458,0.62753 6.525794,2.64495 7.735246,4.98377 0.437665,0.84635 1.565222,5.94351 6.888544,31.13999 1.283922,6.07706 2.459234,11.1745 2.611807,11.32765 0.35312,0.35444 -0.789819,5.49896 8.29013,-37.31473 0.435441,-2.05319 0.971884,-4.16428 1.192087,-4.69131 1.082332,-2.59039 4.321448,-4.79166 7.984841,-5.42643 1.313334,-0.22757 6.784779,-0.31218 16.14803,-0.2497 14.04204,0.0937 14.1751,0.10058 15.75468,0.81547 2.95199,1.33604 4.71015,3.94855 4.33607,6.44311 -0.1154,0.76917 -0.91828,2.4871 -1.97457,4.22473 l -1.78016,2.92844 -10.73578,0.16776 c -9.968248,0.15578 -10.851952,0.21458 -12.360715,0.82257 -2.195391,0.88467 -3.922804,2.31178 -5.344457,4.41536 -1.980035,2.92977 -9.290646,18.8375 -16.105328,35.04481 -3.841929,9.13724 -4.783816,11.06054 -5.416638,11.06054 -0.124965,0 -0.423548,-0.31514 -0.663514,-0.70031 z"
       id="path834"
       inkscape:connector-curvature="0"
       sodipodi:nodetypes="cssssccscscsccscssccccsccssc" />
    <path
       style="fill:#00a682;fill-opacity:1;stroke-width:0.31124496"
       d="m 55.843715,235.34828 c -2.844399,-2.86735 -7.971056,-8.29468 -11.392572,-12.06075 -8.829633,-9.71878 -10.60045,-11.51463 -12.899811,-13.08216 -3.654079,-2.49106 -4.411464,-2.63571 -13.801258,-2.63571 -9.5583845,0 -8.067098,0.62333 -11.89584,-4.97225 -2.1350654,-3.12034 -2.4610297,-3.77848 -2.5796172,-5.20848 -0.1262692,-1.52264 -0.065558,-1.70238 0.870409,-2.5767 2.0524709,-1.91729 3.0271688,-2.0267 18.0560692,-2.0267 h 13.539154 l 1.966929,0.90814 c 3.483764,1.60848 4.132588,2.60092 11.259114,17.22192 3.48354,7.14694 7.617645,15.58555 9.186901,18.75247 3.352563,6.76581 4.581016,9.72319 4.320678,10.40162 -0.453374,1.18148 -1.547205,0.40255 -6.630156,-4.7214 z m 17.202594,4.74579 c -0.380376,-0.99124 -0.17189,-1.44118 15.296346,-33.01185 5.342987,-10.90504 6.260488,-12.18594 9.712336,-13.55904 1.745258,-0.69424 2.162599,-0.72024 13.317779,-0.82972 14.97406,-0.14696 18.25,0.23555 20.16642,2.35468 0.84377,0.93304 1.00236,2.59289 0.36651,3.8363 -1.25131,2.447 -5.56144,8.39246 -6.18562,8.53255 -0.3589,0.0805 -4.37202,0.18287 -8.91805,0.22738 l -8.26552,0.0809 -2.31681,1.15668 c -3.13119,1.56326 -5.1954,3.32078 -9.370712,7.97848 -10.950759,12.21592 -22.143025,23.70118 -23.09657,23.70118 -0.289678,0 -0.607424,-0.21041 -0.706109,-0.46756 z"
       id="path832"
       inkscape:connector-curvature="0"
       sodipodi:nodetypes="sssssccscssssscscssccscsssc" />
    <g
       aria-label="RMS Catalog"
       style="font-style:normal;font-weight:normal;font-size:8.94654751px;line-height:1.25;font-family:sans-serif;letter-spacing:0px;word-spacing:0px;fill:#004a3a;fill-opacity:1;stroke:none;stroke-width:0.60999185"
       id="text849">
      <path
         d="M 5.4167275,263.30224 H 3.5867517 v 6.61231 H -8.4114075e-7 V 253.02997 H 5.2703295 q 3.3915551,0 5.0995325,1.26879 1.707977,1.24438 1.707977,3.78195 0,1.65918 -0.829589,2.73276 -0.805189,1.07359 -2.5131664,1.82998 l 4.3675424,7.2711 H 9.0278798 Z m -1.8299758,-2.53757 h 1.8787752 q 1.4395809,0 2.1715712,-0.63439 0.7319904,-0.65879 0.7319904,-2.04957 0,-1.29319 -0.7807897,-1.87878 -0.75639,-0.60999 -2.3911684,-0.60999 H 3.5867517 Z"
         style="font-style:normal;font-variant:normal;font-weight:600;font-stretch:normal;font-size:24.39967728px;font-family:'Fira Sans';-inkscape-font-specification:'Fira Sans Semi-Bold';fill:#004a3a;fill-opacity:1;stroke-width:0.60999185"
         id="path1487" />
      <path
         d="m 31.353546,269.91455 h -3.513554 l -0.365995,-6.85631 q -0.170798,-3.07436 -0.170798,-5.22153 0,-1.14678 0.0244,-1.65918 l -2.854762,11.93144 h -3.391555 l -3.04996,-11.95584 q 0.0976,1.48838 0.0976,3.34276 0,1.97637 -0.0976,3.63555 l -0.365995,6.78311 h -3.489154 l 1.317583,-16.88458 h 4.562739 l 2.781564,11.63865 2.610765,-11.63865 h 4.611539 z"
         style="font-style:normal;font-variant:normal;font-weight:600;font-stretch:normal;font-size:24.39967728px;font-family:'Fira Sans';-inkscape-font-specification:'Fira Sans Semi-Bold';fill:#004a3a;fill-opacity:1;stroke-width:0.60999185"
         id="path1489" />
      <path
         d="m 38.892975,252.63958 q 1.829976,0 3.171958,0.53679 1.366382,0.5124 2.513167,1.58598 l -1.707977,1.97638 q -0.902788,-0.732 -1.805576,-1.07359 -0.902789,-0.3416 -1.927575,-0.3416 -1.122385,0 -1.805576,0.488 -0.658791,0.46359 -0.658791,1.34198 0,0.60999 0.268396,1.00039 0.292796,0.39039 1.000387,0.73199 0.70759,0.34159 2.122772,0.78079 2.513166,0.80519 3.75755,2.00077 1.244384,1.17118 1.244384,3.36716 0,1.56157 -0.78079,2.75716 -0.78079,1.17118 -2.26917,1.85437 -1.48838,0.6588 -3.489154,0.6588 -2.000773,0 -3.562353,-0.6344 -1.561579,-0.63439 -2.683964,-1.73237 l 1.829975,-2.02518 q 0.975988,0.82959 2.025174,1.26879 1.049186,0.41479 2.293569,0.41479 1.317583,0 2.098373,-0.60999 0.805189,-0.60999 0.805189,-1.70798 0,-0.68319 -0.292796,-1.12238 -0.268397,-0.4636 -0.951588,-0.82959 -0.683191,-0.366 -1.976373,-0.75639 -2.757164,-0.85399 -3.952748,-2.04957 -1.171185,-1.19559 -1.171185,-3.12316 0,-1.41518 0.75639,-2.48877 0.75639,-1.09799 2.098373,-1.68358 1.341982,-0.58559 3.049959,-0.58559 z"
         style="font-style:normal;font-variant:normal;font-weight:600;font-stretch:normal;font-size:24.39967728px;font-family:'Fira Sans';-inkscape-font-specification:'Fira Sans Semi-Bold';fill:#004a3a;fill-opacity:1;stroke-width:0.60999185"
         id="path1491" />
      <path
         d="m 60.145051,252.63958 q 1.585979,0 2.757164,0.46359 1.171184,0.4392 2.293569,1.36639 l -1.781176,2.07397 q -1.463981,-1.19559 -3.074359,-1.19559 -1.805577,0 -2.879162,1.48838 -1.049186,1.46398 -1.049186,4.61154 0,3.07436 1.049186,4.56274 1.073585,1.46398 2.903561,1.46398 0.951588,0 1.732377,-0.34159 0.78079,-0.366 1.634779,-1.02479 l 1.659178,2.07397 q -0.902788,0.92719 -2.244771,1.53718 -1.317582,0.5856 -2.927961,0.5856 -2.26917,0 -3.977147,-1.02479 -1.707978,-1.02479 -2.659565,-3.00116 -0.951587,-2.00077 -0.951587,-4.83114 0,-2.75716 0.975987,-4.73353 0.975987,-2.00078 2.683964,-3.02556 1.707978,-1.04919 3.855149,-1.04919 z"
         style="font-style:normal;font-variant:normal;font-weight:600;font-stretch:normal;font-size:24.39967728px;font-family:'Fira Sans';-inkscape-font-specification:'Fira Sans Semi-Bold';fill:#004a3a;fill-opacity:1;stroke-width:0.60999185"
         id="path1493" />
      <path
         d="m 76.980804,266.3278 q 0,0.75639 0.219597,1.12238 0.219597,0.3416 0.73199,0.5124 l -0.73199,2.29357 q -1.146785,-0.0976 -1.878775,-0.5368 -0.707591,-0.43919 -1.097986,-1.36638 -1.268783,1.95198 -3.879548,1.95198 -1.927575,0 -3.07436,-1.09799 -1.122385,-1.12239 -1.122385,-2.90356 0,-2.12277 1.53718,-3.24516 1.537179,-1.12238 4.416341,-1.12238 h 1.488381 v -0.6344 q 0,-1.19558 -0.536793,-1.65917 -0.536793,-0.4636 -1.781177,-0.4636 -1.366382,0 -3.415954,0.68319 l -0.78079,-2.31797 q 2.415568,-0.95158 4.782337,-0.95158 2.635165,0 3.879548,1.14678 1.244384,1.12239 1.244384,3.36716 z m -5.685125,1.48838 q 1.463981,0 2.29357,-1.43958 v -2.46437 h -1.146785 q -2.805963,0 -2.805963,2.09837 0,0.85399 0.414794,1.34198 0.439195,0.4636 1.244384,0.4636 z"
         style="font-style:normal;font-variant:normal;font-weight:600;font-stretch:normal;font-size:24.39967728px;font-family:'Fira Sans';-inkscape-font-specification:'Fira Sans Semi-Bold';fill:#004a3a;fill-opacity:1;stroke-width:0.60999185"
         id="path1495" />
      <path
         d="m 88.180228,269.30456 q -0.707591,0.48799 -1.610379,0.73199 -0.878388,0.2684 -1.756776,0.2684 -2.000774,-0.0244 -3.02556,-1.14679 -1.024787,-1.12238 -1.024787,-3.29396 v -6.44151 h -1.927574 v -2.43997 h 1.927574 v -2.83036 l 3.464754,-0.4148 v 3.24516 h 2.976761 l -0.341596,2.43997 H 84.22748 v 6.36832 q 0,0.92718 0.317196,1.34198 0.317196,0.41479 0.975987,0.41479 0.658791,0 1.463981,-0.43919 z"
         style="font-style:normal;font-variant:normal;font-weight:600;font-stretch:normal;font-size:24.39967728px;font-family:'Fira Sans';-inkscape-font-specification:'Fira Sans Semi-Bold';fill:#004a3a;fill-opacity:1;stroke-width:0.60999185"
         id="path1497" />
      <path
         d="m 99.330818,266.3278 q 0,0.75639 0.219597,1.12238 0.219597,0.3416 0.731985,0.5124 l -0.731985,2.29357 q -1.146785,-0.0976 -1.878775,-0.5368 -0.707591,-0.43919 -1.097986,-1.36638 -1.268783,1.95198 -3.879549,1.95198 -1.927574,0 -3.074359,-1.09799 -1.122385,-1.12239 -1.122385,-2.90356 0,-2.12277 1.53718,-3.24516 1.537179,-1.12238 4.416341,-1.12238 h 1.48838 v -0.6344 q 0,-1.19558 -0.536792,-1.65917 -0.536793,-0.4636 -1.781177,-0.4636 -1.366382,0 -3.415955,0.68319 l -0.780789,-2.31797 q 2.415568,-0.95158 4.782336,-0.95158 2.635165,0 3.879549,1.14678 1.244384,1.12239 1.244384,3.36716 z m -5.685125,1.48838 q 1.46398,0 2.293569,-1.43958 v -2.46437 h -1.146784 q -2.805963,0 -2.805963,2.09837 0,0.85399 0.414794,1.34198 0.439194,0.4636 1.244384,0.4636 z"
         style="font-style:normal;font-variant:normal;font-weight:600;font-stretch:normal;font-size:24.39967728px;font-family:'Fira Sans';-inkscape-font-specification:'Fira Sans Semi-Bold';fill:#004a3a;fill-opacity:1;stroke-width:0.60999185"
         id="path1499" />
      <path
         d="m 105.77231,270.30495 q -1.58598,0 -2.46437,-0.90279 -0.87839,-0.92719 -0.87839,-2.61077 v -14.957 l 3.46475,-0.39039 v 15.24979 q 0,0.85399 0.70759,0.85399 0.3904,0 0.6832,-0.1464 l 0.70759,2.46437 q -1.00039,0.4392 -2.22037,0.4392 z"
         style="font-style:normal;font-variant:normal;font-weight:600;font-stretch:normal;font-size:24.39967728px;font-family:'Fira Sans';-inkscape-font-specification:'Fira Sans Semi-Bold';fill:#004a3a;fill-opacity:1;stroke-width:0.60999185"
         id="path1501" />
      <path
         d="m 115.09294,256.59233 q 2.90356,0 4.53834,1.82997 1.63478,1.80558 1.63478,5.02634 0,2.04957 -0.75639,3.61115 -0.73199,1.53718 -2.14717,2.39117 -1.39078,0.85399 -3.29396,0.85399 -2.90356,0 -4.56274,-1.80558 -1.63478,-1.82998 -1.63478,-5.05073 0,-2.04958 0.73199,-3.58676 0.75639,-1.56158 2.14718,-2.41556 1.41518,-0.85399 3.34275,-0.85399 z m 0,2.58636 q -1.31758,0 -1.97637,1.04919 -0.63439,1.02479 -0.63439,3.22076 0,2.19597 0.63439,3.24515 0.65879,1.02479 1.95197,1.02479 1.29319,0 1.92758,-1.02479 0.65879,-1.04918 0.65879,-3.24515 0,-2.19597 -0.63439,-3.22076 -0.6344,-1.04919 -1.92758,-1.04919 z"
         style="font-style:normal;font-variant:normal;font-weight:600;font-stretch:normal;font-size:24.39967728px;font-family:'Fira Sans';-inkscape-font-specification:'Fira Sans Semi-Bold';fill:#004a3a;fill-opacity:1;stroke-width:0.60999185"
         id="path1503" />
      <path
         d="m 135.46667,257.69031 q -1.26879,0.488 -3.73315,0.488 1.21998,0.53679 1.80557,1.34198 0.58559,0.78079 0.58559,1.97637 0,1.24439 -0.65879,2.24477 -0.63439,0.97599 -1.85437,1.53718 -1.19559,0.56119 -2.80597,0.56119 -0.85398,0 -1.51278,-0.17079 -0.48799,0.31719 -0.48799,0.85399 0,0.39039 0.2928,0.63439 0.31719,0.21959 1.19558,0.21959 h 1.97637 q 1.43959,0 2.51317,0.488 1.09799,0.46359 1.68358,1.31758 0.60999,0.82959 0.60999,1.90318 0,1.97637 -1.70798,3.07435 -1.68357,1.12239 -4.87993,1.12239 -2.29357,0 -3.63555,-0.48799 -1.31759,-0.4636 -1.85438,-1.36639 -0.53679,-0.90278 -0.53679,-2.26917 h 3.09876 q 0,0.6344 0.24399,1.00039 0.244,0.3904 0.87839,0.56119 0.65879,0.1952 1.87878,0.1952 1.68357,0 2.34237,-0.41479 0.68319,-0.4148 0.68319,-1.17119 0,-0.68319 -0.5124,-1.04918 -0.51239,-0.366 -1.51278,-0.366 h -1.90317 q -1.92758,0 -2.87916,-0.70759 -0.95159,-0.73199 -0.95159,-1.82998 0,-0.68319 0.39039,-1.31758 0.4148,-0.65879 1.12239,-1.09798 -1.19558,-0.65879 -1.75678,-1.53718 -0.53679,-0.90279 -0.53679,-2.14717 0,-1.41519 0.68319,-2.46437 0.70759,-1.07359 1.95198,-1.63478 1.26878,-0.58559 2.87916,-0.58559 2.00077,0.0488 3.29395,-0.3416 1.29319,-0.39039 2.75717,-1.21998 z m -6.83191,1.21999 q -0.97599,0 -1.56158,0.63439 -0.5612,0.60999 -0.5612,1.68358 0,1.09798 0.5612,1.73237 0.58559,0.63439 1.58598,0.63439 1.04918,0 1.58597,-0.60999 0.5368,-0.60999 0.5368,-1.80557 0,-2.26917 -2.14717,-2.26917 z"
         style="font-style:normal;font-variant:normal;font-weight:600;font-stretch:normal;font-size:24.39967728px;font-family:'Fira Sans';-inkscape-font-specification:'Fira Sans Semi-Bold';fill:#004a3a;fill-opacity:1;stroke-width:0.60999185"
         id="path1505" />
    </g>
  </g>
</svg>
