<?xml version="1.0" encoding="UTF-8" standalone="no"?>
<!-- Created with Inkscape (http://www.inkscape.org/) -->

<svg
   xmlns:dc="http://purl.org/dc/elements/1.1/"
   xmlns:cc="http://creativecommons.org/ns#"
   xmlns:rdf="http://www.w3.org/1999/02/22-rdf-syntax-ns#"
   xmlns:svg="http://www.w3.org/2000/svg"
   xmlns="http://www.w3.org/2000/svg"
   xmlns:sodipodi="http://sodipodi.sourceforge.net/DTD/sodipodi-0.dtd"
   xmlns:inkscape="http://www.inkscape.org/namespaces/inkscape"
   width="512"
   height="512"
   viewBox="0 0 135.46666 135.46667"
   version="1.1"
   id="svg861"
   inkscape:version="0.92.5 (2060ec1f9f, 2020-04-08)"
   sodipodi:docname="RMSCatalog-logo.svg">
  <defs
     id="defs855" />
  <sodipodi:namedview
     id="base"
     pagecolor="#ffffff"
     bordercolor="#666666"
     borderopacity="1.0"
     inkscape:pageopacity="0.0"
     inkscape:pageshadow="2"
     inkscape:zoom="0.75332031"
     inkscape:cx="163.049"
     inkscape:cy="188.31216"
     inkscape:document-units="px"
     inkscape:current-layer="layer1"
     showgrid="false"
     units="px"
     inkscape:window-width="1366"
     inkscape:window-height="712"
     inkscape:window-x="0"
     inkscape:window-y="0"
     inkscape:window-maximized="1" />
  <metadata
     id="metadata858">
    <rdf:RDF>
      <cc:Work
         rdf:about="">
        <dc:format>image/svg+xml</dc:format>
        <dc:type
           rdf:resource="http://purl.org/dc/dcmitype/StillImage" />
        <dc:title></dc:title>
      </cc:Work>
    </rdf:RDF>
  </metadata>
  <g
     inkscape:label="Capa 1"
     inkscape:groupmode="layer"
     id="layer1"
     transform="translate(0,-161.53332)">
    <g
       id="g845"
       transform="matrix(1.1763588,0,0,1.1763588,-51.989021,121.77418)">
      <path
         sodipodi:nodetypes="cscscscsssccccccscscccscscc"
         inkscape:connector-curvature="0"
         id="path836"
         d="M 75.998771,100.97968 C 72.376869,100.53495 67.200039,98.655162 63.549067,96.459003 60.946696,94.893604 45.229938,82.525675 44.697369,81.624107 c -0.654846,-1.10857 -0.671944,-2.798178 -0.0379,-3.74532 0.273505,-0.408565 0.985112,-1.003877 1.581345,-1.322917 1.052987,-0.563441 1.33453,-0.58007 9.820879,-0.58007 h 8.736812 l 1.846521,0.899758 c 1.65195,0.80495 2.734628,1.780723 10.274973,9.260417 4.635648,4.598363 9.620427,9.652175 11.077284,11.230697 3.567226,3.865128 3.717226,3.731018 -4.235083,3.786408 -3.30563,0.023 -6.799175,-0.055 -7.763433,-0.1734 z m 38.136409,0.0306 c -0.58503,-0.10369 -0.95549,-0.33328 -1.01165,-0.62695 -0.0952,-0.497636 8.55707,-9.602057 16.9356,-17.82068 4.01988,-3.943151 4.88204,-4.658341 6.69804,-5.55625 l 2.08428,-1.03056 8.18161,-0.0771 c 9.30495,-0.08769 10.08745,0.02889 11.57632,1.724626 0.75183,0.856287 0.82311,1.082077 0.71074,2.251501 -0.0687,0.714872 -0.35992,1.618321 -0.64717,2.007663 -0.28727,0.389343 -4.37189,3.706413 -9.07695,7.371268 -6.69705,5.216443 -9.16612,6.981069 -11.37056,8.126431 -3.60161,1.8713 -7.69205,3.239131 -10.72565,3.586641 -2.52125,0.28882 -11.79993,0.31898 -13.35461,0.0434 z"
         style="fill:#004a3a;fill-opacity:1;stroke-width:0.26458335" />
      <path
         sodipodi:nodetypes="cssssccscscsccscssccccsccssc"
         inkscape:connector-curvature="0"
         id="path834"
         d="m 101.12214,100.38361 c -0.47659,-0.764958 -0.5564,-0.947568 -3.845135,-8.797393 C 93.199897,81.854628 86.514967,67.139127 84.126869,62.638895 83.385152,61.24117 81.32853,59.186048 79.995527,58.510564 77.998828,57.49876 76.153904,57.322675 67.549514,57.322675 H 59.42862 l -1.537382,-2.576251 c -1.202071,-2.014352 -1.561738,-2.869893 -1.649034,-3.922575 -0.190273,-2.294437 1.109667,-4.120314 3.796921,-5.333092 0.943732,-0.425915 2.219746,-0.47896 13.275107,-0.551865 7.750188,-0.05111 12.780293,0.02088 13.730338,0.196507 2.885667,0.533445 5.547452,2.248415 6.575584,4.236602 0.372051,0.719468 1.330565,5.052468 5.855819,26.471508 1.091437,5.165989 2.090547,9.499227 2.220247,9.629415 0.30018,0.301305 -0.67141,4.674566 7.04728,-31.720534 0.37016,-1.745377 0.82618,-3.539972 1.01337,-3.987993 0.92007,-2.202037 3.67358,-4.073294 6.78776,-4.612902 1.11644,-0.193451 5.76761,-0.265374 13.72713,-0.212267 11.93687,0.07964 12.04998,0.0855 13.39275,0.693221 2.50943,1.135743 4.00401,3.356584 3.68601,5.477161 -0.0981,0.653857 -0.78061,2.11424 -1.67854,3.591364 l -1.51328,2.489409 -9.12628,0.142613 c -8.47382,0.132419 -9.22504,0.182409 -10.50761,0.699246 -1.86626,0.752044 -3.3347,1.965204 -4.54322,3.753417 -1.68319,2.490541 -7.8978,16.013393 -13.69083,29.790914 -3.26595,7.767397 -4.06663,9.402357 -4.60458,9.402357 -0.10623,0 -0.36005,-0.2679 -0.56404,-0.59532 z"
         style="fill:#d4ff2a;fill-opacity:1;stroke-width:0.26458335" />
      <path
         sodipodi:nodetypes="sssssccscssssscscssccscsssc"
         inkscape:connector-curvature="0"
         id="path832"
         d="M 91.666536,96.547155 C 89.248567,94.109681 84.890494,89.496009 81.981929,86.29455 74.476028,78.032798 72.970691,76.506181 71.016048,75.173658 67.909786,73.056049 67.265947,72.933092 59.283864,72.933092 c -8.125399,0 -6.857685,0.529881 -10.112425,-4.22682 -1.814978,-2.652537 -2.092074,-3.212015 -2.192883,-4.427624 -0.107339,-1.294371 -0.05573,-1.447163 0.739918,-2.190406 1.744766,-1.629855 2.573338,-1.722859 15.349117,-1.722859 h 11.509375 l 1.672048,0.771996 c 2.961481,1.367333 3.513034,2.210986 9.571157,14.640018 2.96129,6.075476 6.475613,13.248976 7.809608,15.941112 2.849949,5.751489 3.894233,8.265501 3.672925,8.842221 -0.385405,1.00435 -1.315249,0.3422 -5.636168,-4.013575 z m 14.623594,4.034305 c -0.32335,-0.842631 -0.14612,-1.225116 13.00313,-28.062737 4.54197,-9.270167 5.32192,-10.359033 8.25627,-11.52628 1.48361,-0.590156 1.83838,-0.612259 11.32119,-0.705326 12.72916,-0.124926 15.51397,0.200237 17.14308,2.001671 0.71728,0.793154 0.85209,2.204164 0.31157,3.261161 -1.06372,2.080144 -4.72768,7.134273 -5.25828,7.253359 -0.30509,0.06847 -3.71657,0.155454 -7.58106,0.193289 l -7.02636,0.06879 -1.96948,0.983268 c -2.66176,1.328896 -4.41651,2.822937 -7.96586,6.782356 -9.30903,10.384517 -18.82336,20.147919 -19.63395,20.147919 -0.24625,0 -0.51636,-0.17887 -0.60025,-0.39747 z"
         style="fill:#00a682;fill-opacity:1;stroke-width:0.26458335" />
    </g>
    <text
       xml:space="preserve"
       style="font-style:normal;font-weight:normal;font-size:8.94654751px;line-height:1.25;font-family:sans-serif;letter-spacing:0px;word-spacing:0px;fill:#004a3a;fill-opacity:1;stroke:none;stroke-width:0.60999185"
       x="-1.7811773"
       y="269.91455"
       id="text849"><tspan
         sodipodi:role="line"
         id="tspan847"
         x="-1.7811773"
         y="269.91455"
         style="font-style:normal;font-variant:normal;font-weight:600;font-stretch:normal;font-size:24.39967728px;font-family:'Fira Sans';-inkscape-font-specification:'Fira Sans Semi-Bold';fill:#004a3a;fill-opacity:1;stroke-width:0.60999185">RMS Catalog</tspan></text>
  </g>
</svg>
