<?xml version="1.0" encoding="UTF-8" standalone="no"?>
<!-- Created with Inkscape (http://www.inkscape.org/) -->

<svg
   xmlns:dc="http://purl.org/dc/elements/1.1/"
   xmlns:cc="http://creativecommons.org/ns#"
   xmlns:rdf="http://www.w3.org/1999/02/22-rdf-syntax-ns#"
   xmlns:svg="http://www.w3.org/2000/svg"
   xmlns="http://www.w3.org/2000/svg"
   xmlns:sodipodi="http://sodipodi.sourceforge.net/DTD/sodipodi-0.dtd"
   xmlns:inkscape="http://www.inkscape.org/namespaces/inkscape"
   width="512"
   height="512"
   viewBox="0 0 135.46666 135.46667"
   version="1.1"
   id="svg861"
   inkscape:version="0.92.5 (2060ec1f9f, 2020-04-08)"
   sodipodi:docname="RMSCatalog-logo-no-text.svg">
  <defs
     id="defs855" />
  <sodipodi:namedview
     id="base"
     pagecolor="#ffffff"
     bordercolor="#666666"
     borderopacity="1.0"
     inkscape:pageopacity="0.0"
     inkscape:pageshadow="2"
     inkscape:zoom="0.75332031"
     inkscape:cx="163.049"
     inkscape:cy="188.31216"
     inkscape:document-units="px"
     inkscape:current-layer="layer1"
     showgrid="false"
     units="px"
     inkscape:window-width="1366"
     inkscape:window-height="712"
     inkscape:window-x="0"
     inkscape:window-y="0"
     inkscape:window-maximized="1" />
  <metadata
     id="metadata858">
    <rdf:RDF>
      <cc:Work
         rdf:about="">
        <dc:format>image/svg+xml</dc:format>
        <dc:type
           rdf:resource="http://purl.org/dc/dcmitype/StillImage" />
        <dc:title></dc:title>
      </cc:Work>
    </rdf:RDF>
  </metadata>
  <g
     inkscape:label="Capa 1"
     inkscape:groupmode="layer"
     id="layer1"
     transform="translate(0,-161.53332)">
    <g
       id="g1530"
       transform="translate(0,21.545694)">
      <path
         sodipodi:nodetypes="cscscscsssccccccscscccscscc"
         inkscape:connector-curvature="0"
         id="path836"
         d="m 37.412802,240.56252 c -4.260656,-0.52317 -10.350466,-2.73447 -14.645319,-5.31794 -3.061322,-1.84147 -21.5498684,-16.3906 -22.17636064,-17.45116 -0.77033385,-1.30408 -0.79044724,-3.29166 -0.044584,-4.40584 0.32174002,-0.48062 1.15884514,-1.18092 1.86022914,-1.55623 1.2386905,-0.66281 1.5698861,-0.68237 11.5528775,-0.68237 h 10.277626 l 2.172171,1.05844 c 1.943286,0.94691 3.216904,2.09477 12.087055,10.89357 5.453185,5.40933 11.317074,11.35442 13.03086,13.21133 4.196338,4.54678 4.372792,4.38902 -4.981977,4.45418 -3.888607,0.0271 -7.998269,-0.0647 -9.132583,-0.20398 z m 44.8621,0.036 c -0.688205,-0.12197 -1.123999,-0.39206 -1.190063,-0.73752 -0.111989,-0.58539 10.066185,-11.29546 19.922341,-20.96351 4.72882,-4.63856 5.74303,-5.47988 7.8793,-6.53614 l 2.45186,-1.21231 9.62451,-0.0907 c 10.94596,-0.10315 11.86646,0.034 13.61791,2.02878 0.88442,1.0073 0.96827,1.27291 0.83608,2.64857 -0.0808,0.84095 -0.42339,1.90373 -0.7613,2.36173 -0.33794,0.45801 -5.14291,4.36008 -10.67775,8.67126 -7.87814,6.13641 -10.78265,8.21224 -13.37586,9.5596 -4.23679,2.20132 -9.04861,3.81038 -12.617215,4.21918 -2.965894,0.33975 -13.880951,0.37523 -15.709813,0.0511 z"
         style="fill:#004a3a;fill-opacity:1;stroke-width:0.31124496" />
      <path
         sodipodi:nodetypes="cssssccscscsccscssccccsccssc"
         inkscape:connector-curvature="0"
         id="path834"
         d="M 66.966898,239.86132 C 66.406257,238.96146 66.312372,238.74664 62.44364,229.51243 57.647498,218.06459 49.783622,200.75388 46.974362,195.46 c -0.872526,-1.64423 -3.291851,-4.06179 -4.859941,-4.8564 -2.348834,-1.19025 -4.519127,-1.39739 -14.640977,-1.39739 h -9.553085 l -1.808513,-3.03059 c -1.414067,-2.3696 -1.837164,-3.37603 -1.939855,-4.61436 -0.22383,-2.69908 1.305366,-4.84697 4.466541,-6.27363 1.110167,-0.50103 2.611218,-0.56343 15.616289,-0.64919 9.117002,-0.0601 15.03421,0.0246 16.151804,0.23116 3.39458,0.62753 6.525794,2.64495 7.735246,4.98377 0.437665,0.84635 1.565222,5.94351 6.888544,31.13999 1.283922,6.07706 2.459234,11.1745 2.611807,11.32765 0.35312,0.35444 -0.789819,5.49896 8.29013,-37.31473 0.435441,-2.05319 0.971884,-4.16428 1.192087,-4.69131 1.082332,-2.59039 4.321448,-4.79166 7.984841,-5.42643 1.313334,-0.22757 6.784779,-0.31218 16.14803,-0.2497 14.04204,0.0937 14.1751,0.10058 15.75468,0.81547 2.95199,1.33604 4.71015,3.94855 4.33607,6.44311 -0.1154,0.76917 -0.91828,2.4871 -1.97457,4.22473 l -1.78016,2.92844 -10.73578,0.16776 c -9.968248,0.15578 -10.851952,0.21458 -12.360715,0.82257 -2.195391,0.88467 -3.922804,2.31178 -5.344457,4.41536 -1.980035,2.92977 -9.290646,18.8375 -16.105328,35.04481 -3.841929,9.13724 -4.783816,11.06054 -5.416638,11.06054 -0.124965,0 -0.423548,-0.31514 -0.663514,-0.70031 z"
         style="fill:#d4ff2a;fill-opacity:1;stroke-width:0.31124496" />
      <path
         sodipodi:nodetypes="sssssccscssssscscssccscsssc"
         inkscape:connector-curvature="0"
         id="path832"
         d="m 55.843715,235.34828 c -2.844399,-2.86735 -7.971056,-8.29468 -11.392572,-12.06075 -8.829633,-9.71878 -10.60045,-11.51463 -12.899811,-13.08216 -3.654079,-2.49106 -4.411464,-2.63571 -13.801258,-2.63571 -9.5583845,0 -8.067098,0.62333 -11.89584,-4.97225 -2.1350654,-3.12034 -2.4610297,-3.77848 -2.5796172,-5.20848 -0.1262692,-1.52264 -0.065558,-1.70238 0.870409,-2.5767 2.0524709,-1.91729 3.0271688,-2.0267 18.0560692,-2.0267 h 13.539154 l 1.966929,0.90814 c 3.483764,1.60848 4.132588,2.60092 11.259114,17.22192 3.48354,7.14694 7.617645,15.58555 9.186901,18.75247 3.352563,6.76581 4.581016,9.72319 4.320678,10.40162 -0.453374,1.18148 -1.547205,0.40255 -6.630156,-4.7214 z m 17.202594,4.74579 c -0.380376,-0.99124 -0.17189,-1.44118 15.296346,-33.01185 5.342987,-10.90504 6.260488,-12.18594 9.712336,-13.55904 1.745258,-0.69424 2.162599,-0.72024 13.317779,-0.82972 14.97406,-0.14696 18.25,0.23555 20.16642,2.35468 0.84377,0.93304 1.00236,2.59289 0.36651,3.8363 -1.25131,2.447 -5.56144,8.39246 -6.18562,8.53255 -0.3589,0.0805 -4.37202,0.18287 -8.91805,0.22738 l -8.26552,0.0809 -2.31681,1.15668 c -3.13119,1.56326 -5.1954,3.32078 -9.370712,7.97848 -10.950759,12.21592 -22.143025,23.70118 -23.09657,23.70118 -0.289678,0 -0.607424,-0.21041 -0.706109,-0.46756 z"
         style="fill:#00a682;fill-opacity:1;stroke-width:0.31124496" />
    </g>
  </g>
</svg>
